<?xml version="1.0" encoding="UTF-8"?>
<svg id="Layer_1" data-name="Layer 1" xmlns="http://www.w3.org/2000/svg" viewBox="0 0 1328.75 847.21">
  <defs>
    <style>
      .cls-1 {
        fill: #fff;
        stroke-width: 0px;
      }
    </style>
  </defs>
  <path class="cls-1" d="M610.28,698.4c-109.53,80.69-288.38,171.96-427.16,143.49-50.69-9.94-96.98-38.66-127.24-80.71-72.5-96.08-80.82-208.47,12.97-293.38,38.4-34.22,89.55-60.68,140.21-69.44,22.21-3.55,47.17-6.5,70.46-5.99,24.59.39,49.09,3.57,73.03,8.54,45.37,9.55,88.63,25.13,130.96,43.22,31.93,13.86,63.94,29.4,94.63,45.76,64.19,33.13,123.05,73.66,186.36,107.26,59.34,31.18,122.7,57.46,187.65,72.83,50.69,11.58,101.31,18.01,152.02,10.05,1.65-.3,3.29-.61,4.81-.93l2.18-.49,2.85-.7c2.63-.64,5.22-1.25,7.79-1.81l6.46-1.4c59.89-13.29,95.79-42.48,96.65-107.01.46-29.68-5.69-60.78-14.47-90.11-14.05-46.72-35.73-93.9-60.01-137.14-47.12-85.39-116.29-160.48-204.63-203.19-50.76-24.81-106.62-38.41-163.02-41.56-89.11-6.65-172.96,25.08-242.76,80.46-51.73,40.79-96.02,91.45-132.04,146.63-.76,1.25-2.32,3.5-3.19,4.74-21.11,28.85-64.77,4.45-51.72-28.46,0,0,1.61-3.82,1.61-3.82,14.78-33.99,33.75-65.84,55.23-96.02C501.8,70.34,639.92-12.67,802.21,1.59c64.04,4.36,127.53,20.22,185.68,47.67,144.54,67.38,241.59,199.19,301.37,343.36,50.74,121.44,72.68,278.8-60.57,355.97-26.37,15.1-54.77,24.44-84.06,30.58-12.45,3.13-25.31,5.82-37.93,7.29-153.8,16.62-310.81-47.2-440.67-123.49-45.12-27.43-90.8-56.28-137.18-81-33.74-18.35-68.77-35.57-104.19-50.42-46.23-18.86-94.4-35.38-144.4-37.63-17.87-.78-33.22.76-51.71,3.35-13.46,1.5-26.22,5.69-39.03,10.94-40.82,17.4-84.62,48.61-91.7,94.54-5.16,36.24,13.58,73.59,34.27,103.67,21.33,32.09,54.31,48.17,91.88,53.09,98.68,12.23,223.41-37.19,312.95-78.74,13.79-6.51,27.59-13.29,41.15-20.27.49-.31,5.97-3.06,6.38-3.32,27.06-13.1,49.26,22.84,25.84,41.23h0Z"/>
</svg>